<svg xmlns="http://www.w3.org/2000/svg" xmlns:xlink="http://www.w3.org/1999/xlink" width="502pt" height="798pt" viewBox="0.00 0.00 502.49 797.60">
<g id="graph0" class="graph" transform="scale(1 1) rotate(0) translate(4 793.6)">
<title>G</title>
<polygon fill="white" stroke="none" points="-4,4 -4,-793.6 498.49,-793.6 498.49,4 -4,4"/>
<g id="clust1" class="cluster">
<title>cluster_host</title>
<polygon fill="none" stroke="black" stroke-dasharray="5,2" points="8,-8 8,-184.8 246,-184.8 246,-8 8,-8"/>
<text text-anchor="middle" x="127" y="-168.2" font-family="Times,serif" font-size="14.00">Host (CPU)</text>
</g>
<g id="clust2" class="cluster">
<title>cluster_gpu</title>
<polygon fill="none" stroke="black" stroke-dasharray="5,2" points="97,-219.6 97,-721 353,-721 353,-219.6 97,-219.6"/>
<text text-anchor="middle" x="225" y="-704.4" font-family="Times,serif" font-size="14.00">GPU (Vulkan Compute)</text>
</g>
<!-- prompt -->
<g id="node1" class="node">
<title>prompt</title>
<path fill="none" stroke="black" d="M65.56,-152C65.56,-152 28.44,-152 28.44,-152 22.44,-152 16.44,-146 16.44,-140 16.44,-140 16.44,-122.4 16.44,-122.4 16.44,-116.4 22.44,-110.4 28.44,-110.4 28.44,-110.4 65.56,-110.4 65.56,-110.4 71.56,-110.4 77.56,-116.4 77.56,-122.4 77.56,-122.4 77.56,-140 77.56,-140 77.56,-146 71.56,-152 65.56,-152"/>
<text text-anchor="middle" x="47" y="-135.4" font-family="Helvetica,sans-Serif" font-size="14.00">Prompt</text>
<text text-anchor="middle" x="47" y="-118.6" font-family="Helvetica,sans-Serif" font-size="14.00">String</text>
</g>
<!-- tokenizer -->
<g id="node2" class="node">
<title>tokenizer</title>
<path fill="none" stroke="black" d="M189.92,-57.6C189.92,-57.6 64.08,-57.6 64.08,-57.6 58.08,-57.6 52.08,-51.6 52.08,-45.6 52.08,-45.6 52.08,-28 52.08,-28 52.08,-22 58.08,-16 64.08,-16 64.08,-16 189.92,-16 189.92,-16 195.92,-16 201.92,-22 201.92,-28 201.92,-28 201.92,-45.6 201.92,-45.6 201.92,-51.6 195.92,-57.6 189.92,-57.6"/>
<text text-anchor="middle" x="127" y="-41" font-family="Helvetica,sans-Serif" font-size="14.00">Qwen3BPETokenizer</text>
<text text-anchor="middle" x="127" y="-24.2" font-family="Helvetica,sans-Serif" font-size="14.00">Encode</text>
</g>
<!-- prompt&#45;&gt;tokenizer -->
<g id="edge1" class="edge">
<title>prompt-&gt;tokenizer</title>
<path fill="none" stroke="black" d="M64.36,-110.15C75.47,-97.32 90.06,-80.47 102.36,-66.26"/>
<polygon fill="black" stroke="black" points="104.78,-68.81 108.68,-58.95 99.49,-64.22 104.78,-68.81"/>
<text text-anchor="middle" x="123.91" y="-79.8" font-family="Times,serif" font-size="14.00">Token IDs</text>
</g>
<!-- embed -->
<g id="node4" class="node">
<title>embed</title>
<path fill="none" stroke="black" d="M332.81,-688.2C332.81,-688.2 227.19,-688.2 227.19,-688.2 221.19,-688.2 215.19,-682.2 215.19,-676.2 215.19,-676.2 215.19,-658.6 215.19,-658.6 215.19,-652.6 221.19,-646.6 227.19,-646.6 227.19,-646.6 332.81,-646.6 332.81,-646.6 338.81,-646.6 344.81,-652.6 344.81,-658.6 344.81,-658.6 344.81,-676.2 344.81,-676.2 344.81,-682.2 338.81,-688.2 332.81,-688.2"/>
<text text-anchor="middle" x="280" y="-671.6" font-family="Helvetica,sans-Serif" font-size="14.00">Token Embedding</text>
<text text-anchor="middle" x="280" y="-654.8" font-family="Helvetica,sans-Serif" font-size="14.00">(Gather Q4_K)</text>
</g>
<!-- tokenizer&#45;&gt;embed -->
<g id="edge2" class="edge">
<title>tokenizer-&gt;embed</title>
<path fill="none" stroke="black" d="M202.35,-45.31C293.53,-56.54 435,-81.77 435,-130.2 435,-369.6 435,-369.6 435,-369.6 435,-479 351.23,-587.96 306.86,-637.99"/>
<polygon fill="black" stroke="black" points="304.43,-635.46 300.33,-645.23 309.63,-640.15 304.43,-635.46"/>
<text text-anchor="middle" x="464.74" y="-364.4" font-family="Times,serif" font-size="14.00">Token IDs</text>
</g>
<!-- callback -->
<g id="node3" class="node">
<title>callback</title>
<path fill="none" stroke="black" d="M226.42,-149.2C226.42,-149.2 107.58,-149.2 107.58,-149.2 101.58,-149.2 95.58,-143.2 95.58,-137.2 95.58,-137.2 95.58,-125.2 95.58,-125.2 95.58,-119.2 101.58,-113.2 107.58,-113.2 107.58,-113.2 226.42,-113.2 226.42,-113.2 232.42,-113.2 238.42,-119.2 238.42,-125.2 238.42,-125.2 238.42,-137.2 238.42,-137.2 238.42,-143.2 232.42,-149.2 226.42,-149.2"/>
<text text-anchor="middle" x="167" y="-127" font-family="Helvetica,sans-Serif" font-size="14.00">On‑Token Callback</text>
</g>
<!-- layer -->
<g id="node5" class="node">
<title>layer</title>
<path fill="none" stroke="black" d="M294.57,-609.6C294.57,-609.6 187.43,-609.6 187.43,-609.6 181.43,-609.6 175.43,-603.6 175.43,-597.6 175.43,-597.6 175.43,-580 175.43,-580 175.43,-574 181.43,-568 187.43,-568 187.43,-568 294.57,-568 294.57,-568 300.57,-568 306.57,-574 306.57,-580 306.57,-580 306.57,-597.6 306.57,-597.6 306.57,-603.6 300.57,-609.6 294.57,-609.6"/>
<text text-anchor="middle" x="241" y="-593" font-family="Helvetica,sans-Serif" font-size="14.00">Transformer Layer</text>
<text text-anchor="middle" x="241" y="-576.2" font-family="Helvetica,sans-Serif" font-size="14.00">× N layers</text>
</g>
<!-- embed&#45;&gt;layer -->
<g id="edge3" class="edge">
<title>embed-&gt;layer</title>
<path fill="none" stroke="black" d="M269.75,-646.27C265.71,-638.33 260.98,-629.03 256.53,-620.3"/>
<polygon fill="black" stroke="black" points="259.66,-618.73 252,-611.41 253.42,-621.91 259.66,-618.73"/>
</g>
<!-- norm -->
<g id="node6" class="node">
<title>norm</title>
<path fill="none" stroke="black" d="M220.62,-512.4C220.62,-512.4 117.38,-512.4 117.38,-512.4 111.38,-512.4 105.38,-506.4 105.38,-500.4 105.38,-500.4 105.38,-488.4 105.38,-488.4 105.38,-482.4 111.38,-476.4 117.38,-476.4 117.38,-476.4 220.62,-476.4 220.62,-476.4 226.62,-476.4 232.62,-482.4 232.62,-488.4 232.62,-488.4 232.62,-500.4 232.62,-500.4 232.62,-506.4 226.62,-512.4 220.62,-512.4"/>
<text text-anchor="middle" x="169" y="-490.2" font-family="Helvetica,sans-Serif" font-size="14.00">Output RMSNorm</text>
</g>
<!-- layer&#45;&gt;norm -->
<g id="edge5" class="edge">
<title>layer-&gt;norm</title>
<path fill="none" stroke="black" d="M225.38,-567.75C214.86,-554.25 200.88,-536.32 189.48,-521.68"/>
<polygon fill="black" stroke="black" points="192.25,-519.55 183.35,-513.81 186.73,-523.85 192.25,-519.55"/>
</g>
<!-- kvcache -->
<g id="node10" class="node">
<title>kvcache</title>
<path fill="none" stroke="black" d="M332.9,-515.2C332.9,-515.2 263.1,-515.2 263.1,-515.2 257.1,-515.2 251.1,-509.2 251.1,-503.2 251.1,-503.2 251.1,-485.6 251.1,-485.6 251.1,-479.6 257.1,-473.6 263.1,-473.6 263.1,-473.6 332.9,-473.6 332.9,-473.6 338.9,-473.6 344.9,-479.6 344.9,-485.6 344.9,-485.6 344.9,-503.2 344.9,-503.2 344.9,-509.2 338.9,-515.2 332.9,-515.2"/>
<text text-anchor="middle" x="298" y="-498.6" font-family="Helvetica,sans-Serif" font-size="14.00">KV Cache</text>
<text text-anchor="middle" x="298" y="-481.8" font-family="Helvetica,sans-Serif" font-size="14.00">Read / Write</text>
</g>
<!-- layer&#45;&gt;kvcache -->
<g id="edge4" class="edge">
<title>layer-&gt;kvcache</title>
<path fill="none" stroke="black" d="M254.84,-557.4C258.87,-549.35 263.49,-540.79 268.3,-533.2 270.06,-530.42 271.98,-527.61 273.97,-524.83"/>
<polygon fill="black" stroke="black" points="251.79,-555.67 250.58,-566.2 258.09,-558.72 251.79,-555.67"/>
<polygon fill="black" stroke="black" points="276.76,-526.95 279.97,-516.85 271.16,-522.74 276.76,-526.95"/>
<text text-anchor="middle" x="297.65" y="-537.4" font-family="Times,serif" font-size="14.00">KV Cache</text>
</g>
<!-- head -->
<g id="node7" class="node">
<title>head</title>
<path fill="none" stroke="black" d="M193.4,-436.6C193.4,-436.6 144.6,-436.6 144.6,-436.6 138.6,-436.6 132.6,-430.6 132.6,-424.6 132.6,-424.6 132.6,-407 132.6,-407 132.6,-401 138.6,-395 144.6,-395 144.6,-395 193.4,-395 193.4,-395 199.4,-395 205.4,-401 205.4,-407 205.4,-407 205.4,-424.6 205.4,-424.6 205.4,-430.6 199.4,-436.6 193.4,-436.6"/>
<text text-anchor="middle" x="169" y="-420" font-family="Helvetica,sans-Serif" font-size="14.00">LM Head</text>
<text text-anchor="middle" x="169" y="-403.2" font-family="Helvetica,sans-Serif" font-size="14.00">(Linear)</text>
</g>
<!-- norm&#45;&gt;head -->
<g id="edge6" class="edge">
<title>norm-&gt;head</title>
<path fill="none" stroke="black" d="M169,-476.02C169,-467.89 169,-457.94 169,-448.54"/>
<polygon fill="black" stroke="black" points="172.5,-448.61 169,-438.61 165.5,-448.61 172.5,-448.61"/>
</g>
<!-- logits -->
<g id="node8" class="node">
<title>logits</title>
<path fill="none" stroke="black" d="M192,-342.2C192,-342.2 162,-342.2 162,-342.2 156,-342.2 150,-336.2 150,-330.2 150,-330.2 150,-318.2 150,-318.2 150,-312.2 156,-306.2 162,-306.2 162,-306.2 192,-306.2 192,-306.2 198,-306.2 204,-312.2 204,-318.2 204,-318.2 204,-330.2 204,-330.2 204,-336.2 198,-342.2 192,-342.2"/>
<text text-anchor="middle" x="177" y="-320" font-family="Helvetica,sans-Serif" font-size="14.00">Logits</text>
</g>
<!-- head&#45;&gt;logits -->
<g id="edge7" class="edge">
<title>head-&gt;logits</title>
<path fill="none" stroke="black" d="M170.78,-394.91C171.86,-382.79 173.26,-367.1 174.46,-353.68"/>
<polygon fill="black" stroke="black" points="177.91,-354.39 175.31,-344.12 170.94,-353.77 177.91,-354.39"/>
</g>
<!-- sample -->
<g id="node9" class="node">
<title>sample</title>
<path fill="none" stroke="black" d="M246.66,-269.2C246.66,-269.2 117.34,-269.2 117.34,-269.2 111.34,-269.2 105.34,-263.2 105.34,-257.2 105.34,-257.2 105.34,-239.6 105.34,-239.6 105.34,-233.6 111.34,-227.6 117.34,-227.6 117.34,-227.6 246.66,-227.6 246.66,-227.6 252.66,-227.6 258.66,-233.6 258.66,-239.6 258.66,-239.6 258.66,-257.2 258.66,-257.2 258.66,-263.2 252.66,-269.2 246.66,-269.2"/>
<text text-anchor="middle" x="182" y="-252.6" font-family="Helvetica,sans-Serif" font-size="14.00">GPU Sampling</text>
<text text-anchor="middle" x="182" y="-235.8" font-family="Helvetica,sans-Serif" font-size="14.00">Argmax / Temp+TopP</text>
</g>
<!-- logits&#45;&gt;sample -->
<g id="edge8" class="edge">
<title>logits-&gt;sample</title>
<path fill="none" stroke="black" d="M178.18,-305.71C178.68,-298.35 179.28,-289.55 179.85,-281.12"/>
<polygon fill="black" stroke="black" points="183.34,-281.36 180.53,-271.15 176.36,-280.89 183.34,-281.36"/>
</g>
<!-- sample&#45;&gt;callback -->
<g id="edge9" class="edge">
<title>sample-&gt;callback</title>
<path fill="none" stroke="black" d="M179.39,-227.33C176.99,-208.9 173.41,-181.39 170.71,-160.69"/>
<polygon fill="black" stroke="black" points="174.2,-160.37 169.44,-150.91 167.26,-161.28 174.2,-160.37"/>
<text text-anchor="middle" x="203.74" y="-197" font-family="Times,serif" font-size="14.00">Token ID</text>
</g>
<!-- loop -->
<g id="node11" class="node">
<title>loop</title>
<text text-anchor="middle" x="329" y="-135.4" font-family="Helvetica,sans-Serif" font-size="14.00">Decode Loop</text>
<text text-anchor="middle" x="329" y="-118.6" font-family="Helvetica,sans-Serif" font-size="14.00">(one token at a time)</text>
</g>
<!-- sample&#45;&gt;loop -->
<g id="edge10" class="edge">
<title>sample-&gt;loop</title>
<path fill="none" stroke="black" d="M211.15,-227.16C218.97,-221.58 227.38,-215.45 235,-209.6 256.34,-193.24 279.67,-174.03 297.76,-158.84"/>
<polygon fill="black" stroke="black" points="299.64,-161.84 305.03,-152.71 295.12,-156.48 299.64,-161.84"/>
</g>
<!-- loop&#45;&gt;embed -->
<g id="edge11" class="edge">
<title>loop-&gt;embed</title>
<path fill="none" stroke="black" stroke-dasharray="5,2" d="M327.09,-151.75C325.01,-174.64 322,-213.74 322,-247.4 322,-369.6 322,-369.6 322,-369.6 322,-400.04 326.43,-407.78 336.25,-436.6 342.13,-453.86 349.95,-455.82 354,-473.6 369.29,-540.81 385.43,-570.09 349,-628.6 346.59,-632.47 343.64,-635.97 340.33,-639.14"/>
<polygon fill="black" stroke="black" points="338.19,-636.36 332.63,-645.37 342.6,-641.8 338.19,-636.36"/>
<text text-anchor="middle" x="378.62" y="-411.6" font-family="Times,serif" font-size="14.00">Next Token ID</text>
</g>
<!-- loader -->
<g id="node12" class="node">
<title>loader</title>
<polygon fill="none" stroke="black" points="221.45,-789.6 218.45,-793.6 197.45,-793.6 194.45,-789.6 110.55,-789.6 110.55,-748 221.45,-748 221.45,-789.6"/>
<text text-anchor="middle" x="166" y="-773" font-family="Helvetica,sans-Serif" font-size="14.00">GGUF Weights</text>
<text text-anchor="middle" x="166" y="-756.2" font-family="Helvetica,sans-Serif" font-size="14.00">(Q4_K / Q6_K)</text>
</g>
<!-- loader&#45;&gt;embed -->
<g id="edge12" class="edge">
<title>loader-&gt;embed</title>
<path fill="none" stroke="black" d="M189.07,-747.68C206.14,-732.8 229.6,-712.34 248.42,-695.94"/>
<polygon fill="black" stroke="black" points="250.59,-698.69 255.82,-689.48 245.99,-693.41 250.59,-698.69"/>
</g>
<!-- loader&#45;&gt;layer -->
<g id="edge13" class="edge">
<title>loader-&gt;layer</title>
<path fill="none" stroke="black" d="M171.13,-747.52C177.68,-722.99 190.11,-680.75 206,-646.6 210.25,-637.47 215.65,-627.98 220.93,-619.44"/>
<polygon fill="black" stroke="black" points="223.76,-621.52 226.19,-611.2 217.86,-617.75 223.76,-621.52"/>
</g>
<!-- loader&#45;&gt;norm -->
<g id="edge14" class="edge">
<title>loader-&gt;norm</title>
<path fill="none" stroke="black" d="M165.73,-747.66C165.29,-711.62 164.64,-633.72 166,-568 166.3,-553.52 166.93,-537.42 167.54,-524.07"/>
<polygon fill="black" stroke="black" points="171.03,-524.37 168.01,-514.21 164.04,-524.04 171.03,-524.37"/>
</g>
<!-- loader&#45;&gt;head -->
<g id="edge15" class="edge">
<title>loader-&gt;head</title>
<path fill="none" stroke="black" d="M131.34,-747.6C106.35,-730.17 77,-702.45 77,-668.4 77,-668.4 77,-668.4 77,-493.4 77,-467.15 99.4,-448.15 122.09,-435.65"/>
<polygon fill="black" stroke="black" points="123.46,-438.88 130.76,-431.21 120.27,-432.65 123.46,-438.88"/>
</g>
</g>
</svg>